{"glyphs":{"0":{"ha":847,"x_min":0,"x_max":0,"o":"m 424 -21 b 778 486 682 -21 778 242 b 424 993 778 731 682 993 b 69 486 165 993 69 731 b 424 -21 69 242 165 -21 z m 424 1 b 206 486 263 3 206 250 b 424 971 206 722 263 969 b 642 486 582 972 642 722 b 424 1 642 250 582 0 z "},"1":{"ha":497,"x_min":0,"x_max":0,"o":"m 442 0 l 442 17 l 382 21 b 311 122 340 24 311 57 l 311 972 l 297 972 l 42 819 l 47 806 l 114 836 b 197 792 167 861 197 835 l 197 122 b 113 21 197 57 153 24 l 54 17 l 54 0 z "},"2":{"ha":746,"x_min":0,"x_max":0,"o":"m 647 0 l 704 250 l 688 250 b 435 111 636 126 571 111 l 183 111 l 321 260 b 646 722 439 386 646 519 b 356 993 646 893 501 993 b 56 782 200 993 65 890 b 117 711 51 735 83 711 b 189 779 143 711 176 729 b 360 972 214 882 249 972 b 515 735 457 972 515 871 b 275 254 515 531 424 421 l 61 14 l 61 0 z "},"3":{"ha":761,"x_min":0,"x_max":0,"o":"m 353 -21 b 706 274 504 -21 706 61 b 449 556 706 396 603 535 l 449 575 b 638 786 550 608 638 693 b 372 993 638 917 518 993 b 96 814 231 993 106 908 b 157 743 92 767 124 743 b 229 811 183 743 215 761 b 378 972 254 900 281 972 b 515 786 460 972 515 922 b 268 504 515 657 393 546 l 268 476 b 581 232 450 504 581 383 b 386 7 581 81 507 7 b 189 140 299 7 232 54 b 117 194 172 174 143 194 b 56 138 83 194 56 171 b 353 -21 56 43 225 -21 z "},"4":{"ha":833,"x_min":0,"x_max":0,"o":"m 699 0 l 699 17 l 639 21 b 568 122 597 24 568 57 l 568 281 l 751 281 l 792 393 l 568 393 l 568 972 l 553 972 l 22 281 l 454 281 l 454 122 b 376 21 454 57 417 24 l 318 17 l 318 0 z m 454 788 l 454 393 l 156 393 z "},"5":{"ha":718,"x_min":0,"x_max":0,"o":"m 311 -21 b 649 286 486 -21 649 97 b 172 707 649 514 386 638 l 229 861 l 582 861 l 628 972 l 246 972 l 106 608 l 119 594 b 546 233 339 533 546 413 b 358 7 546 85 461 7 b 175 140 285 7 218 54 b 103 194 158 174 129 194 b 42 138 69 194 42 171 b 311 -21 42 43 197 -21 z "},"6":{"ha":776,"x_min":0,"x_max":0,"o":"m 404 -21 b 721 290 578 -21 721 94 b 442 576 721 465 579 576 b 224 485 335 576 269 525 l 196 485 b 576 976 224 688 414 907 l 569 993 b 69 365 288 907 69 675 b 404 -21 69 113 243 -21 z m 406 -3 b 199 360 296 -3 199 124 l 199 426 b 403 539 246 481 319 539 b 590 269 522 539 590 421 b 406 -3 590 72 500 -3 z "},"7":{"ha":713,"x_min":0,"x_max":0,"o":"m 256 -17 b 322 74 289 -17 322 8 b 485 679 322 292 367 513 l 685 961 l 685 975 l 93 975 l 36 725 l 53 725 b 306 864 104 849 169 864 l 582 864 l 444 674 b 192 86 350 543 192 275 b 256 -17 192 6 224 -17 z "},"8":{"ha":757,"x_min":0,"x_max":0,"o":"m 382 -21 b 688 261 558 -22 688 113 b 471 539 688 386 593 478 l 457 546 b 647 769 560 589 647 665 b 382 993 647 897 521 992 b 108 765 242 994 108 903 b 286 507 108 649 201 565 l 300 497 b 69 243 182 450 71 369 b 382 -21 68 90 208 -19 z m 365 599 b 219 799 304 633 219 699 b 382 971 219 910 286 972 b 533 789 465 969 533 890 b 429 563 533 725 508 626 z m 382 1 b 188 232 265 1 188 114 b 321 485 188 332 233 422 l 422 426 b 579 197 519 371 579 297 b 382 1 579 74 490 1 z "},"9":{"ha":776,"x_min":0,"x_max":0,"o":"m 207 -21 b 707 607 489 65 707 297 b 372 993 707 860 533 993 b 56 682 199 993 56 878 b 335 396 56 507 197 396 b 553 488 442 396 507 447 l 581 488 b 200 -4 553 285 363 65 z m 374 433 b 186 703 254 433 186 551 b 371 975 186 900 276 975 b 578 613 481 975 578 849 l 578 546 b 374 433 531 492 457 433 z "}," ":{"ha":347,"x_min":0,"x_max":0,"o":""},"A":{"ha":1126,"x_min":0,"x_max":0,"o":"m 1075 21 b 954 135 1019 26 992 50 l 588 972 l 549 972 l 192 167 b 46 21 143 58 103 28 l 14 17 l 14 0 l 351 0 l 351 17 l 314 22 b 231 165 263 29 188 63 l 307 344 l 722 344 l 810 138 b 757 21 844 56 810 25 l 704 17 l 704 0 l 1113 0 l 1113 17 z m 501 804 l 529 804 l 710 375 l 319 375 z "},"B":{"ha":1056,"x_min":0,"x_max":0,"o":"m 600 0 b 982 258 878 0 982 119 b 676 513 982 399 872 503 l 676 540 b 910 754 810 551 910 618 b 576 972 910 864 818 972 l 69 972 l 69 956 l 131 951 b 217 836 200 947 217 901 l 217 136 b 131 21 217 71 200 25 l 69 17 l 69 0 z m 344 836 b 456 950 344 925 372 950 l 514 950 b 776 754 714 950 775 869 b 542 532 778 626 711 532 l 344 532 z m 485 24 b 344 136 385 24 344 28 l 344 506 l 536 506 b 838 258 765 506 836 389 b 510 24 839 114 735 24 z "},"C":{"ha":1107,"x_min":0,"x_max":0,"o":"m 564 -21 b 1035 343 796 -21 965 111 l 1017 347 b 622 47 951 178 803 47 b 213 506 367 47 213 242 b 575 971 213 744 333 971 b 892 589 769 971 947 850 l 903 582 l 1043 763 b 588 993 942 903 796 993 b 69 479 303 993 69 774 b 564 -21 69 197 271 -21 z "},"D":{"ha":1108,"x_min":0,"x_max":0,"o":"m 574 0 b 1039 489 876 0 1039 240 b 492 971 1039 722 863 969 l 69 972 l 69 956 l 131 951 b 217 836 200 947 217 901 l 217 136 b 131 21 217 71 200 25 l 69 17 l 69 0 z m 500 24 b 344 136 378 26 344 32 l 344 836 b 444 947 344 901 361 947 l 483 947 b 892 490 742 947 890 740 b 500 24 893 233 751 17 z "},"E":{"ha":1001,"x_min":0,"x_max":0,"o":"m 925 0 l 949 313 l 932 313 b 639 26 878 149 806 26 l 468 26 b 344 136 367 26 344 32 l 344 490 l 611 490 b 757 361 692 490 749 438 l 761 325 l 778 325 l 778 685 l 761 685 l 757 649 b 611 518 749 572 692 518 l 344 518 l 344 836 b 492 949 344 943 363 949 l 614 949 b 915 676 824 949 882 804 l 932 676 l 899 972 l 69 972 l 69 956 l 139 951 b 217 836 208 947 217 901 l 217 136 b 139 21 217 71 208 25 l 69 17 l 69 0 z "},"F":{"ha":953,"x_min":0,"x_max":0,"o":"m 503 0 l 503 17 l 436 21 b 344 136 367 25 344 71 l 344 457 l 590 457 b 750 326 685 457 742 403 l 754 290 l 771 290 l 771 650 l 754 650 l 750 614 b 590 485 742 538 685 485 l 344 485 l 344 836 b 458 949 344 901 375 949 l 603 949 b 896 715 771 949 843 879 l 913 715 l 889 972 l 69 972 l 69 956 l 131 951 b 217 836 200 947 217 901 l 217 136 b 131 21 217 71 200 25 l 69 17 l 69 0 z "},"G":{"ha":1119,"x_min":0,"x_max":0,"o":"m 578 -21 b 989 138 782 -21 910 54 l 989 290 b 1067 396 989 344 1000 389 l 1106 400 l 1106 417 l 665 417 l 665 400 l 761 396 b 869 281 872 392 869 347 l 869 201 b 625 10 869 68 736 10 b 213 506 369 10 213 242 b 575 971 213 744 333 971 b 892 589 769 971 947 850 l 903 582 l 1043 763 b 588 993 942 903 796 993 b 69 479 303 993 69 774 b 578 -21 69 197 271 -21 z "},"H":{"ha":1203,"x_min":0,"x_max":0,"o":"m 492 0 l 492 17 l 431 21 b 344 136 361 25 344 71 l 344 488 l 858 488 l 858 136 b 772 21 858 71 842 25 l 711 17 l 711 0 l 1133 0 l 1133 17 l 1072 21 b 986 136 1003 25 986 71 l 986 836 b 1072 951 986 901 1003 947 l 1133 956 l 1133 972 l 711 972 l 711 956 l 772 951 b 858 836 842 947 858 901 l 858 518 l 344 518 l 344 836 b 431 951 344 901 361 947 l 492 956 l 492 972 l 69 972 l 69 956 l 131 951 b 217 836 200 947 217 901 l 217 136 b 131 21 217 71 200 25 l 69 17 l 69 0 z "},"I":{"ha":561,"x_min":0,"x_max":0,"o":"m 492 0 l 492 17 l 431 21 b 344 136 361 25 344 71 l 344 836 b 431 951 344 901 361 947 l 492 956 l 492 972 l 69 972 l 69 956 l 131 951 b 217 836 200 947 217 901 l 217 136 b 131 21 217 71 200 25 l 69 17 l 69 0 z "},"J":{"ha":543,"x_min":0,"x_max":0,"o":"m 47 -222 b 342 107 186 -194 342 -131 l 342 860 b 433 954 342 931 383 950 l 488 958 l 488 972 l 57 972 l 57 958 l 125 954 b 215 860 175 951 215 931 l 215 107 b 42 -201 215 -92 169 -174 z "},"K":{"ha":1101,"x_min":0,"x_max":0,"o":"m 492 0 l 492 17 l 431 21 b 344 136 361 25 344 71 l 344 442 l 419 515 l 750 82 b 722 18 776 47 763 21 l 665 14 l 665 0 l 1093 0 l 1093 14 l 1050 18 b 899 108 996 24 942 54 l 511 607 l 742 833 b 965 956 811 903 900 951 l 1006 958 l 1006 972 l 610 972 l 610 958 l 663 954 b 701 839 713 950 751 890 l 356 482 l 329 482 l 344 589 l 344 836 b 431 951 344 901 361 947 l 492 956 l 492 972 l 69 972 l 69 956 l 131 951 b 217 836 200 947 217 901 l 217 136 b 131 21 217 71 200 25 l 69 17 l 69 0 z "},"L":{"ha":932,"x_min":0,"x_max":0,"o":"m 867 0 l 890 313 l 875 313 b 582 25 822 149 765 25 l 468 25 b 344 136 364 25 344 43 l 344 836 b 422 951 344 901 353 947 l 492 956 l 492 972 l 69 972 l 69 956 l 139 951 b 217 836 208 947 217 901 l 217 136 b 139 21 217 71 208 25 l 69 17 l 69 0 z "},"M":{"ha":1361,"x_min":0,"x_max":0,"o":"m 432 0 l 432 17 l 363 21 b 257 136 293 25 257 71 l 257 804 l 286 804 l 625 28 l 664 28 l 985 804 l 1017 804 l 1017 136 b 931 21 1017 71 1000 25 l 869 17 l 869 0 l 1292 0 l 1292 17 l 1231 21 b 1144 136 1161 25 1144 71 l 1144 836 b 1231 951 1144 901 1161 947 l 1292 956 l 1292 972 l 1018 972 l 719 244 l 690 244 l 361 972 l 65 972 l 65 956 l 121 951 b 226 836 190 946 226 901 l 226 136 b 121 21 226 71 190 26 l 65 17 l 65 0 z "},"N":{"ha":1160,"x_min":0,"x_max":0,"o":"m 424 0 l 424 17 l 354 21 b 249 136 285 25 249 71 l 249 818 l 279 818 l 929 0 l 944 0 l 944 836 b 1050 951 944 901 981 946 l 1106 956 l 1106 972 l 739 972 l 739 956 l 808 951 b 914 836 878 947 914 901 l 914 265 l 885 265 l 335 972 l 83 972 l 83 958 l 128 954 b 218 853 163 951 218 924 l 218 136 b 113 21 218 71 182 26 l 57 17 l 57 0 z "},"O":{"ha":1153,"x_min":0,"x_max":0,"o":"m 576 -21 b 1083 486 863 -21 1083 186 b 576 993 1083 786 863 993 b 69 486 290 993 69 786 b 576 -21 69 186 290 -21 z m 576 1 b 222 486 388 3 222 194 b 576 971 222 778 388 969 b 931 486 763 969 931 778 b 576 1 931 194 763 3 z "},"P":{"ha":994,"x_min":0,"x_max":0,"o":"m 492 0 l 492 15 l 431 21 b 344 136 361 28 344 71 l 344 422 l 592 422 b 943 700 828 422 943 574 b 583 972 943 839 839 972 l 69 972 l 69 956 l 131 951 b 217 836 200 947 217 901 l 217 136 b 131 21 217 71 200 25 l 69 17 l 69 0 z m 344 836 b 429 949 344 901 360 947 l 524 950 b 797 700 704 953 799 844 b 490 450 796 556 719 450 l 344 450 z "},"Q":{"ha":1153,"x_min":0,"x_max":0,"o":"m 1022 -278 b 1239 -146 1106 -278 1174 -226 l 1224 -133 b 1096 -203 1182 -187 1138 -203 b 967 -140 1040 -203 996 -164 l 904 -89 b 726 -17 861 -54 796 -25 l 726 11 b 1083 486 929 60 1083 246 b 576 993 1083 786 863 993 b 69 486 290 993 69 786 b 576 -21 69 186 290 -21 b 768 -128 671 -21 706 -69 l 832 -186 b 1022 -278 894 -244 949 -278 z m 576 1 b 222 486 388 3 222 194 b 576 971 222 778 388 969 b 931 486 763 969 931 778 b 576 1 931 194 763 3 z "},"R":{"ha":1053,"x_min":0,"x_max":0,"o":"m 875 -17 b 1038 147 951 -17 1031 54 l 1024 150 b 931 58 1013 99 981 58 b 851 129 894 58 865 76 l 810 290 b 607 471 783 394 713 469 l 607 499 b 900 728 826 513 900 635 b 561 972 900 839 831 972 l 69 972 l 69 956 l 139 951 b 217 836 208 947 217 901 l 217 136 b 139 21 217 71 208 25 l 69 17 l 69 0 l 492 0 l 492 17 l 422 21 b 344 136 353 25 344 71 l 344 482 l 469 482 b 667 292 601 482 642 399 l 708 118 b 875 -17 731 28 781 -17 z m 344 836 b 499 950 344 940 361 950 l 501 950 b 761 728 711 950 763 844 b 483 508 760 611 699 508 l 344 508 z "},"S":{"ha":897,"x_min":0,"x_max":0,"o":"m 485 -21 b 819 246 644 -21 819 72 b 597 517 819 379 719 475 l 454 565 b 192 804 276 626 192 683 b 399 971 192 908 286 971 b 743 653 561 971 701 828 l 760 653 l 746 986 l 729 986 b 660 933 718 971 707 933 b 410 993 607 933 521 993 b 89 740 228 993 89 885 b 290 482 89 625 163 529 l 449 424 b 693 188 624 360 693 297 b 485 6 693 64 585 6 b 97 342 315 6 139 167 l 81 342 l 94 -14 l 111 -14 b 188 50 121 4 133 50 b 485 -21 267 50 347 -21 z "},"T":{"ha":889,"x_min":0,"x_max":0,"o":"m 656 0 l 656 17 l 586 21 b 508 136 517 25 508 71 l 508 836 b 583 956 508 901 515 956 l 606 956 b 847 701 753 956 796 863 l 861 701 l 839 972 l 50 972 l 28 701 l 42 701 b 283 956 93 863 136 956 l 306 956 b 381 836 374 956 381 901 l 381 136 b 303 21 381 71 372 25 l 233 17 l 233 0 z "},"U":{"ha":1136,"x_min":0,"x_max":0,"o":"m 568 -18 b 936 357 779 -18 936 118 l 936 836 b 1042 951 936 901 972 946 l 1097 956 l 1097 972 l 747 972 l 747 956 l 803 951 b 908 836 872 946 908 901 l 908 385 b 601 61 908 169 756 61 b 314 371 451 61 314 154 l 314 836 b 406 951 314 901 336 946 l 461 956 l 461 972 l 39 972 l 39 956 l 94 951 b 186 836 164 946 186 901 l 188 343 b 568 -18 188 99 364 -18 z "},"V":{"ha":1089,"x_min":0,"x_max":0,"o":"m 560 0 l 879 806 b 1038 950 922 915 981 942 l 1075 956 l 1075 972 l 721 972 l 721 956 l 758 950 b 842 807 810 943 883 913 l 611 215 l 583 215 l 328 835 b 382 951 294 917 328 947 l 435 956 l 435 972 l 14 972 l 14 956 l 61 951 b 186 838 117 946 150 922 l 544 0 z "},"W":{"ha":1575,"x_min":0,"x_max":0,"o":"m 1207 956 l 1244 950 b 1328 807 1296 943 1372 911 l 1068 199 l 1040 199 l 856 576 l 963 806 b 1121 950 1011 911 1064 942 l 1158 956 l 1158 972 l 818 972 l 818 956 l 842 954 b 925 807 892 951 974 910 l 836 618 l 731 835 b 785 954 693 913 731 951 l 810 956 l 810 972 l 431 972 l 431 956 l 464 951 b 589 838 519 944 547 922 l 768 474 l 639 199 l 611 199 l 328 835 b 382 951 293 914 328 946 l 421 956 l 421 972 l 14 972 l 14 956 l 61 951 b 186 838 117 946 147 922 l 572 0 l 588 0 l 789 433 l 1003 0 l 1018 0 l 1365 806 b 1524 950 1411 911 1467 942 l 1561 956 l 1561 972 l 1207 972 z "},"X":{"ha":996,"x_min":0,"x_max":0,"o":"m 400 0 l 400 17 l 371 21 b 297 146 319 28 233 44 l 456 399 l 483 399 l 656 142 b 613 19 717 51 679 28 l 590 17 l 590 0 l 982 0 l 982 17 l 951 21 b 810 138 896 28 881 32 l 544 529 l 746 835 b 942 951 810 932 906 947 l 975 956 l 975 972 l 597 972 l 597 956 l 626 951 b 699 826 675 944 756 918 l 543 574 l 513 574 l 342 831 b 385 953 289 910 317 943 l 406 956 l 406 972 l 14 972 l 14 956 l 44 951 b 188 835 101 943 122 931 l 453 443 l 250 138 b 54 21 178 29 90 25 l 21 17 l 21 0 z "},"Y":{"ha":969,"x_min":0,"x_max":0,"o":"m 44 954 b 188 838 101 946 132 939 l 413 428 l 413 136 b 335 21 413 71 404 25 l 265 17 l 265 0 l 688 0 l 688 17 l 618 21 b 540 136 549 25 540 71 l 539 451 l 742 838 b 924 954 797 943 872 947 l 956 958 l 956 972 l 611 972 l 611 958 l 642 954 b 699 829 704 946 747 928 l 535 497 l 507 497 l 322 847 b 381 956 278 932 313 946 l 400 958 l 400 972 l 14 972 l 14 958 z "},"Z":{"ha":875,"x_min":0,"x_max":0,"o":"m 781 0 l 819 356 l 803 356 b 511 28 750 192 708 28 l 211 28 l 799 939 l 799 972 l 108 972 l 86 639 l 103 639 b 378 944 157 803 181 944 l 644 944 l 56 36 l 56 0 z "},"a":{"ha":838,"x_min":0,"x_max":0,"o":"m 278 -21 b 542 179 401 -21 492 72 l 569 179 l 553 117 b 665 -14 528 25 593 -14 b 824 124 744 -14 813 43 l 808 128 b 729 53 794 85 771 53 b 672 121 699 53 672 71 l 672 472 b 385 715 672 664 543 715 b 85 519 222 715 85 603 b 149 454 85 481 111 454 b 228 521 189 454 219 482 b 389 694 238 568 244 694 b 554 493 500 694 554 615 l 554 456 b 444 379 554 410 521 389 l 331 364 b 67 164 194 346 67 297 b 278 -21 67 49 156 -21 z m 349 72 b 201 186 256 72 201 117 b 375 336 201 286 269 317 l 444 349 b 547 394 490 357 531 374 l 556 394 l 556 318 b 349 72 556 161 432 72 z "},"b":{"ha":881,"x_min":0,"x_max":0,"o":"m 461 -21 b 814 358 606 -21 814 101 b 514 715 814 615 663 715 b 236 531 383 715 289 633 l 208 531 l 228 696 l 228 1056 l 217 1063 l -42 964 l -36 947 l 36 967 b 110 893 82 979 110 960 l 110 0 l 125 0 l 201 56 l 217 56 b 461 -21 253 25 340 -21 z m 433 8 b 231 165 328 8 239 96 l 231 419 b 461 654 231 517 331 654 b 676 347 572 654 676 560 b 433 8 676 147 583 8 z "},"c":{"ha":783,"x_min":0,"x_max":0,"o":"m 410 -21 b 724 208 588 -21 694 104 l 706 213 b 461 47 665 106 563 47 b 199 367 340 47 199 142 b 415 690 199 549 294 690 b 575 531 492 690 553 640 b 650 457 583 483 613 457 b 719 525 690 457 719 488 b 440 715 719 626 576 715 b 67 331 246 715 68 561 b 410 -21 65 114 229 -21 z "},"d":{"ha":943,"x_min":0,"x_max":0,"o":"m 382 -21 b 646 164 514 -21 600 61 l 674 164 l 638 -10 l 647 -17 l 921 85 l 915 101 l 843 82 b 769 156 797 69 769 89 l 769 1056 l 760 1063 l 500 964 l 506 947 l 578 967 b 651 893 624 979 651 960 l 651 649 b 435 715 611 679 542 715 b 67 336 290 715 67 593 b 382 -21 67 79 233 -21 z m 435 40 b 206 347 325 40 206 135 b 449 686 206 547 299 686 b 651 529 554 686 643 599 l 651 275 b 435 40 651 178 567 40 z "},"e":{"ha":783,"x_min":0,"x_max":0,"o":"m 411 -21 b 722 208 589 -21 693 104 l 707 213 b 463 44 667 106 564 44 b 200 385 299 44 201 200 l 200 415 l 554 415 b 711 521 625 415 711 426 b 435 715 711 619 607 715 b 67 340 240 715 68 557 b 411 -21 65 124 232 -21 z m 201 443 b 439 694 213 593 326 694 b 585 553 533 694 585 629 b 435 443 585 468 503 443 z "},"f":{"ha":585,"x_min":0,"x_max":0,"o":"m 419 0 l 419 17 l 361 21 b 296 136 319 24 296 57 l 296 639 l 532 639 l 551 694 l 296 694 b 422 990 296 913 318 990 b 585 950 492 990 517 950 b 654 1004 625 950 654 976 b 560 1069 654 1043 617 1069 b 179 694 374 1069 193 931 l 47 694 l 28 639 l 178 639 l 178 136 b 114 21 178 57 154 24 l 57 17 l 57 0 z "},"g":{"ha":781,"x_min":0,"x_max":0,"o":"m 343 -319 b 747 -81 525 -319 747 -256 b 478 111 747 31 638 111 l 276 111 b 186 171 200 111 186 131 b 271 253 186 210 233 249 b 381 236 306 242 344 236 b 675 467 542 236 675 322 b 564 632 675 542 628 604 l 564 660 b 790 754 665 660 763 682 b 760 838 801 790 793 826 b 663 778 721 851 683 824 b 528 681 628 704 590 681 b 381 711 485 700 432 711 b 88 467 225 711 88 610 b 231 285 88 367 146 310 l 231 257 b 86 125 144 232 86 179 b 207 21 86 63 125 22 l 207 -7 b 42 -157 110 -18 42 -72 b 343 -319 42 -269 169 -319 z m 381 254 b 211 465 300 254 211 300 b 381 693 211 624 300 693 b 551 465 463 693 551 624 b 381 254 551 300 463 254 z m 389 -297 b 168 -144 249 -297 168 -229 b 289 0 168 -57 208 -19 l 424 0 b 635 -124 538 0 635 -28 b 389 -297 635 -232 510 -297 z "},"h":{"ha":910,"x_min":0,"x_max":0,"o":"m 401 0 l 401 17 l 342 21 b 278 122 301 24 278 57 l 278 483 b 488 656 318 592 401 656 b 646 450 593 656 646 574 l 646 122 b 581 21 646 57 622 24 l 525 17 l 525 0 l 888 0 l 888 17 l 828 21 b 764 122 788 24 764 57 l 764 474 b 546 715 764 635 675 715 b 288 560 438 715 350 646 l 260 560 l 278 696 l 278 1056 l 267 1063 l 8 964 l 14 947 l 86 967 b 160 893 132 979 160 960 l 160 122 b 94 21 160 57 136 24 l 39 17 l 39 0 z "},"i":{"ha":449,"x_min":0,"x_max":0,"o":"m 231 860 b 317 936 278 860 317 892 b 231 1018 317 988 278 1018 b 143 936 185 1018 143 988 b 231 860 143 892 185 860 z m 421 0 l 421 17 l 363 21 b 297 122 321 24 297 57 l 297 706 l 288 713 l 28 614 l 33 597 l 106 617 b 179 543 151 629 179 610 l 179 122 b 115 21 179 57 156 24 l 58 17 l 58 0 z "},"j":{"ha":438,"x_min":0,"x_max":0,"o":"m 268 860 b 354 936 315 860 354 892 b 268 1018 354 988 315 1018 b 181 936 222 1018 181 988 b 268 860 181 892 222 860 z m 14 -312 b 329 -22 124 -312 329 -315 l 329 706 l 319 713 l 60 614 l 65 597 l 138 617 b 211 543 183 629 211 610 l 211 8 b 14 -296 211 -199 139 -278 z "},"k":{"ha":840,"x_min":0,"x_max":0,"o":"m 401 0 l 401 17 l 343 21 b 278 108 301 24 278 43 l 278 311 l 326 360 l 543 82 b 529 18 571 46 569 22 l 488 14 l 488 0 l 832 0 l 832 14 l 804 18 b 682 92 749 26 722 40 l 407 440 l 524 556 b 742 678 594 625 663 668 l 765 681 l 765 694 l 449 694 l 449 681 l 488 676 b 492 561 538 671 544 614 l 289 356 l 263 356 l 278 463 l 278 1056 l 268 1063 l 8 964 l 17 947 l 86 967 b 160 907 132 979 160 974 l 160 108 b 96 21 160 43 136 24 l 39 17 l 39 0 z "},"l":{"ha":429,"x_min":0,"x_max":0,"o":"m 401 0 l 401 17 l 343 21 b 278 122 301 24 278 57 l 278 1056 l 268 1063 l 8 964 l 14 947 l 86 967 b 160 893 132 979 160 960 l 160 122 b 96 21 160 57 136 24 l 39 17 l 39 0 z "},"m":{"ha":1299,"x_min":0,"x_max":0,"o":"m 415 0 l 415 17 l 356 21 b 292 122 315 24 292 57 l 292 458 b 476 643 319 571 390 643 b 604 436 581 643 604 560 l 604 122 b 540 21 604 57 581 24 l 483 17 l 483 0 l 846 0 l 846 17 l 788 21 b 722 122 746 24 722 57 l 722 463 b 908 643 750 572 829 643 b 1038 436 1014 643 1038 560 l 1038 122 b 972 21 1038 57 1014 24 l 917 17 l 917 0 l 1279 0 l 1279 17 l 1219 21 b 1156 122 1179 24 1156 57 l 1156 474 b 956 715 1156 635 1085 715 b 733 546 833 715 758 617 l 707 546 b 522 715 701 658 631 715 b 300 546 414 715 340 631 l 271 546 l 306 703 l 296 710 l 22 608 l 28 592 l 100 611 b 174 538 146 624 174 604 l 174 122 b 108 21 174 57 150 24 l 53 17 l 53 0 z "},"n":{"ha":921,"x_min":0,"x_max":0,"o":"m 415 0 l 415 17 l 357 21 b 292 122 315 24 292 57 l 292 486 b 503 656 333 581 415 656 b 660 450 607 656 660 574 l 660 122 b 596 21 660 57 636 24 l 539 17 l 539 0 l 901 0 l 901 17 l 843 21 b 778 122 801 24 778 57 l 778 474 b 560 715 778 635 689 715 b 303 560 453 715 364 646 l 275 560 l 307 703 l 296 710 l 22 608 l 28 592 l 100 611 b 174 538 146 624 174 604 l 174 122 b 110 21 174 57 150 24 l 53 17 l 53 0 z "},"o":{"ha":883,"x_min":0,"x_max":0,"o":"m 442 -21 b 817 347 636 -21 815 110 b 442 715 818 585 636 715 b 67 347 247 715 65 585 b 442 -21 68 110 247 -21 z m 443 1 b 200 347 321 -1 200 103 b 442 693 200 593 321 694 b 685 347 563 693 685 592 b 443 1 685 101 563 0 z "},"p":{"ha":933,"x_min":0,"x_max":0,"o":"m 407 -306 l 407 -289 l 347 -285 b 283 -183 307 -282 283 -249 l 283 43 b 514 -24 324 13 407 -24 b 867 356 658 -24 867 99 b 553 715 867 613 701 715 b 290 528 421 715 336 631 l 263 528 l 297 701 l 288 708 l 14 607 l 19 590 l 92 610 b 165 536 138 622 165 603 l 165 -183 b 100 -285 165 -249 142 -282 l 44 -289 l 44 -306 z m 486 6 b 283 163 381 6 292 93 l 283 417 b 499 651 283 514 368 651 b 729 344 610 651 729 557 b 486 6 729 144 636 6 z "},"q":{"ha":924,"x_min":0,"x_max":0,"o":"m 924 -221 l 918 -204 l 846 -224 b 772 -150 800 -236 772 -217 l 772 694 l 757 694 l 679 639 l 665 639 b 435 715 629 669 556 715 b 67 336 290 715 67 593 b 368 -21 67 79 219 -21 b 646 164 499 -21 592 61 l 674 164 l 654 -1 l 654 -312 l 665 -319 z m 421 40 b 206 347 310 40 206 135 b 449 686 206 547 299 686 b 651 529 554 686 643 599 l 651 275 b 421 40 651 178 551 40 z "},"r":{"ha":672,"x_min":0,"x_max":0,"o":"m 422 0 l 422 17 l 364 21 b 299 108 322 24 299 43 l 297 444 b 453 600 332 515 378 600 b 553 569 496 600 511 569 b 631 636 599 569 631 597 b 526 711 631 685 588 711 b 306 508 451 711 386 660 l 278 508 l 313 703 l 301 710 l 28 604 l 33 588 l 106 607 b 179 538 151 619 179 604 l 181 108 b 117 21 181 43 157 24 l 60 17 l 60 0 z "},"s":{"ha":714,"x_min":0,"x_max":0,"o":"m 374 -21 b 640 176 514 -21 640 51 b 464 379 640 276 572 343 l 353 417 b 203 563 260 449 203 486 b 347 694 203 642 256 694 b 590 478 467 694 565 603 l 608 478 l 594 710 l 581 710 b 542 678 572 699 569 678 b 350 715 490 678 458 715 b 86 517 208 715 86 639 b 247 315 86 414 160 343 l 358 279 b 518 133 461 246 518 203 b 360 1 518 56 460 1 b 86 236 232 1 111 110 l 69 236 l 83 -14 l 97 -14 b 151 26 104 -1 113 26 b 374 -21 207 26 251 -21 z "},"t":{"ha":464,"x_min":0,"x_max":0,"o":"m 278 -14 b 436 142 383 -14 424 76 l 419 146 b 324 61 401 86 367 61 b 246 179 278 61 246 100 l 246 642 l 417 642 l 436 694 l 246 694 l 246 875 l 221 875 l 214 847 b 53 686 190 754 132 697 l 14 681 l 14 642 l 129 642 l 129 174 b 278 -14 129 83 160 -14 z "},"u":{"ha":924,"x_min":0,"x_max":0,"o":"m 378 -19 b 635 139 485 -19 574 53 l 664 139 l 631 -4 l 640 -11 l 915 94 l 908 111 l 836 92 b 763 165 792 79 763 99 l 763 701 l 753 708 l 493 610 l 500 593 l 572 613 b 646 553 617 625 646 619 l 646 217 b 435 43 604 108 522 43 b 278 249 331 43 278 125 l 278 701 l 267 708 l 8 610 l 14 593 l 86 613 b 160 553 132 625 160 619 l 160 225 b 378 -19 160 64 247 -19 z "},"v":{"ha":853,"x_min":0,"x_max":0,"o":"m 447 0 l 679 551 b 810 675 711 626 735 668 l 839 678 l 839 694 l 553 694 l 553 678 l 585 675 b 646 556 638 671 675 628 l 497 185 l 469 185 l 269 617 b 325 674 249 661 285 669 l 368 678 l 368 694 l 14 694 l 14 678 l 42 675 b 140 607 93 669 114 661 l 436 0 z "},"w":{"ha":1160,"x_min":0,"x_max":0,"o":"m 388 0 l 568 485 l 596 485 l 778 0 l 803 0 l 985 551 b 1117 675 1007 621 1039 668 l 1146 678 l 1146 694 l 858 694 l 858 678 l 892 675 b 953 556 963 669 972 618 l 847 215 l 819 215 l 672 617 b 729 674 657 660 688 669 l 771 678 l 771 694 l 422 694 l 422 678 l 450 675 b 549 607 503 669 529 661 l 567 556 l 438 215 l 410 215 l 267 617 b 322 674 251 661 281 669 l 365 678 l 365 694 l 14 694 l 14 678 l 42 675 b 140 607 93 669 121 661 l 363 0 z "},"x":{"ha":779,"x_min":0,"x_max":0,"o":"m 314 0 l 314 17 l 292 18 b 244 128 239 21 206 74 l 353 279 l 374 279 l 493 96 b 461 17 529 42 511 17 l 444 17 l 444 0 l 757 0 l 757 17 l 733 18 b 631 93 692 21 668 39 l 431 383 l 576 572 b 740 676 618 625 672 672 l 765 678 l 765 694 l 465 694 l 465 678 l 488 676 b 535 567 540 674 574 621 l 426 415 l 407 415 l 286 599 b 318 678 250 653 268 678 l 335 678 l 335 694 l 22 694 l 22 678 l 46 676 b 149 601 88 674 111 656 l 349 311 l 203 122 b 39 18 161 69 107 22 l 14 17 l 14 0 z "},"y":{"ha":853,"x_min":0,"x_max":0,"o":"m 124 -300 b 447 14 249 -300 361 -186 l 679 551 b 810 675 711 626 735 668 l 839 678 l 839 694 l 553 694 l 553 678 l 585 675 b 646 556 638 671 675 628 l 494 185 l 481 185 l 267 617 b 322 674 246 660 282 669 l 365 678 l 365 694 l 14 694 l 14 678 l 42 675 b 140 607 93 669 114 660 l 429 28 b 121 -164 335 -162 296 -193 b 14 -226 54 -153 14 -187 b 124 -300 14 -271 58 -300 z "},"z":{"ha":731,"x_min":0,"x_max":0,"o":"m 646 0 l 675 250 l 658 250 b 392 25 619 82 515 25 l 201 25 l 649 681 l 649 694 l 96 694 l 68 463 l 85 463 b 336 671 125 629 226 671 l 508 671 l 56 17 l 56 0 z "},".":{"ha":340,"x_min":0,"x_max":0,"o":"m 171 -11 b 257 65 218 -11 257 21 b 171 147 257 117 218 147 b 83 65 125 147 83 117 b 171 -11 83 21 125 -11 z "},",":{"ha":354,"x_min":0,"x_max":0,"o":"m 114 -174 b 271 24 189 -151 271 -87 b 171 147 271 107 226 147 b 85 65 125 147 85 117 b 167 -12 85 19 126 -12 b 214 1 193 -12 211 -1 b 108 -149 219 -74 171 -121 l 76 -162 l 82 -183 z "},"/":{"ha":636,"x_min":0,"x_max":0,"o":"m 136 -187 l 553 1021 l 500 1021 l 83 -187 z "},"-":{"ha":710,"x_min":0,"x_max":0,"o":"m 629 461 l 640 511 l 81 511 l 69 461 z "},"’":{"ha":340,"x_min":0,"x_max":0,"o":"m 114 651 b 271 849 189 674 271 738 b 171 972 271 932 226 972 b 85 890 125 972 85 942 b 167 813 85 844 126 813 b 214 826 193 813 211 824 b 108 676 219 751 171 704 l 76 663 l 82 642 z "},"'":{"ha":340,"x_min":0,"x_max":0,"o":"m 114 651 b 271 849 189 674 271 738 b 171 972 271 932 226 972 b 85 890 125 972 85 942 b 167 813 85 844 126 813 b 214 826 193 813 211 824 b 108 676 219 751 171 704 l 76 663 l 82 642 z "},"&":{"ha":1029,"x_min":0,"x_max":0,"o":"m 974 193 b 831 72 954 133 904 72 b 653 161 765 72 708 106 b 779 426 703 235 742 326 b 910 550 807 500 836 543 l 939 553 l 939 569 l 633 569 l 633 553 l 671 550 b 743 417 751 544 758 486 b 635 179 728 353 692 257 b 490 381 588 232 540 301 b 392 558 453 442 418 500 l 411 568 b 635 817 506 619 635 671 b 442 988 635 914 551 988 b 218 740 318 988 218 893 b 281 518 218 671 243 597 b 56 217 136 436 56 376 b 329 -19 56 106 153 -19 b 582 78 436 -19 517 17 b 768 -14 644 19 706 -14 b 988 188 904 -14 968 122 z m 444 971 b 547 822 511 971 547 907 b 433 606 547 724 526 658 l 383 576 b 328 793 349 654 328 726 b 444 971 328 886 368 971 z m 179 267 b 290 499 179 360 214 442 b 407 300 322 435 364 369 b 560 100 457 221 508 153 b 407 43 515 65 465 43 b 179 267 265 43 179 135 z "}}}
